<svg xmlns="http://www.w3.org/2000/svg" xmlns:xlink="http://www.w3.org/1999/xlink" width="678" zoomAndPan="magnify" viewBox="0 0 508.5 381.749989" height="509" preserveAspectRatio="xMidYMid meet" version="1.0"><defs><g/><clipPath id="e9a333d2a3"><path d="M 63.3125 0.0625 L 444.6875 0.0625 L 444.6875 381 L 63.3125 381 Z M 63.3125 0.0625 " clip-rule="nonzero"/></clipPath><clipPath id="47c97fdb99"><path d="M 444.6875 190.097656 C 444.6875 193.214844 444.609375 196.332031 444.457031 199.445312 C 444.304688 202.5625 444.074219 205.671875 443.769531 208.773438 C 443.464844 211.878906 443.082031 214.972656 442.625 218.054688 C 442.164062 221.140625 441.632812 224.214844 441.023438 227.273438 C 440.414062 230.332031 439.730469 233.371094 438.972656 236.398438 C 438.214844 239.421875 437.382812 242.425781 436.476562 245.410156 C 435.570312 248.394531 434.59375 251.355469 433.539062 254.292969 C 432.488281 257.226562 431.367188 260.136719 430.171875 263.019531 C 428.976562 265.898438 427.714844 268.75 426.378906 271.570312 C 425.046875 274.386719 423.644531 277.171875 422.171875 279.921875 C 420.699219 282.671875 419.164062 285.386719 417.558594 288.0625 C 415.953125 290.734375 414.285156 293.371094 412.550781 295.960938 C 410.816406 298.554688 409.019531 301.105469 407.160156 303.609375 C 405.304688 306.113281 403.382812 308.570312 401.402344 310.984375 C 399.425781 313.394531 397.386719 315.753906 395.289062 318.066406 C 393.195312 320.375 391.042969 322.632812 388.835938 324.839844 C 386.628906 327.042969 384.371094 329.191406 382.058594 331.289062 C 379.746094 333.382812 377.382812 335.417969 374.972656 337.398438 C 372.558594 339.375 370.097656 341.292969 367.59375 343.152344 C 365.085938 345.007812 362.535156 346.804688 359.941406 348.535156 C 357.34375 350.269531 354.710938 351.9375 352.03125 353.539062 C 349.355469 355.144531 346.640625 356.679688 343.890625 358.148438 C 341.136719 359.621094 338.351562 361.023438 335.53125 362.355469 C 332.707031 363.6875 329.855469 364.953125 326.972656 366.144531 C 324.089844 367.339844 321.179688 368.460938 318.242188 369.511719 C 315.300781 370.5625 312.339844 371.539062 309.355469 372.445312 C 306.367188 373.351562 303.359375 374.183594 300.332031 374.941406 C 297.304688 375.695312 294.261719 376.378906 291.203125 376.988281 C 288.140625 377.597656 285.066406 378.128906 281.980469 378.585938 C 278.894531 379.046875 275.796875 379.425781 272.691406 379.734375 C 269.585938 380.039062 266.472656 380.269531 263.355469 380.421875 C 260.238281 380.574219 257.121094 380.648438 254 380.648438 C 250.878906 380.648438 247.761719 380.574219 244.644531 380.421875 C 241.527344 380.269531 238.414062 380.039062 235.308594 379.734375 C 232.203125 379.425781 229.109375 379.046875 226.019531 378.585938 C 222.933594 378.128906 219.859375 377.597656 216.800781 376.988281 C 213.738281 376.378906 210.695312 375.695312 207.667969 374.941406 C 204.640625 374.183594 201.632812 373.351562 198.648438 372.445312 C 195.660156 371.539062 192.699219 370.5625 189.757812 369.511719 C 186.820312 368.460938 183.910156 367.339844 181.027344 366.144531 C 178.144531 364.953125 175.292969 363.6875 172.472656 362.355469 C 169.648438 361.023438 166.863281 359.621094 164.109375 358.148438 C 161.359375 356.679688 158.644531 355.144531 155.96875 353.539062 C 153.289062 351.9375 150.65625 350.269531 148.058594 348.535156 C 145.464844 346.804688 142.914062 345.007812 140.40625 343.152344 C 137.902344 341.292969 135.441406 339.375 133.03125 337.398438 C 130.617188 335.417969 128.253906 333.382812 125.941406 331.289062 C 123.628906 329.191406 121.371094 327.042969 119.164062 324.839844 C 116.957031 322.632812 114.804688 320.375 112.710938 318.066406 C 110.613281 315.753906 108.578125 313.394531 106.597656 310.984375 C 104.617188 308.570312 102.699219 306.113281 100.839844 303.609375 C 98.980469 301.105469 97.183594 298.554688 95.449219 295.960938 C 93.714844 293.371094 92.046875 290.734375 90.441406 288.0625 C 88.835938 285.386719 87.300781 282.671875 85.828125 279.921875 C 84.359375 277.171875 82.953125 274.386719 81.621094 271.570312 C 80.285156 268.75 79.023438 265.898438 77.828125 263.019531 C 76.632812 260.136719 75.511719 257.226562 74.460938 254.292969 C 73.410156 251.355469 72.429688 248.394531 71.523438 245.410156 C 70.617188 242.425781 69.785156 239.421875 69.027344 236.398438 C 68.269531 233.371094 67.585938 230.332031 66.976562 227.273438 C 66.367188 224.214844 65.835938 221.140625 65.375 218.058594 C 64.917969 214.972656 64.535156 211.878906 64.230469 208.773438 C 63.925781 205.671875 63.695312 202.5625 63.542969 199.445312 C 63.390625 196.332031 63.3125 193.214844 63.3125 190.097656 C 63.3125 186.976562 63.390625 183.863281 63.542969 180.746094 C 63.695312 177.632812 63.925781 174.523438 64.230469 171.417969 C 64.535156 168.316406 64.917969 165.222656 65.375 162.136719 C 65.835938 159.050781 66.367188 155.980469 66.976562 152.921875 C 67.585938 149.863281 68.269531 146.820312 69.027344 143.796875 C 69.785156 140.769531 70.617188 137.765625 71.523438 134.78125 C 72.429688 131.796875 73.410156 128.835938 74.460938 125.902344 C 75.511719 122.964844 76.632812 120.054688 77.828125 117.175781 C 79.023438 114.292969 80.285156 111.445312 81.621094 108.625 C 82.953125 105.804688 84.359375 103.019531 85.828125 100.269531 C 87.300781 97.519531 88.835938 94.808594 90.441406 92.132812 C 92.046875 89.457031 93.714844 86.824219 95.449219 84.230469 C 97.183594 81.636719 98.980469 79.089844 100.839844 76.585938 C 102.699219 74.078125 104.617188 71.621094 106.597656 69.210938 C 108.578125 66.800781 110.613281 64.4375 112.710938 62.128906 C 114.804688 59.816406 116.957031 57.558594 119.164062 55.355469 C 121.371094 53.148438 123.628906 51 125.941406 48.90625 C 128.253906 46.8125 130.617188 44.773438 133.03125 42.796875 C 135.441406 40.820312 137.902344 38.898438 140.40625 37.042969 C 142.914062 35.183594 145.464844 33.390625 148.058594 31.65625 C 150.65625 29.925781 153.289062 28.257812 155.96875 26.652344 C 158.644531 25.050781 161.359375 23.511719 164.109375 22.042969 C 166.863281 20.574219 169.648438 19.171875 172.472656 17.839844 C 175.292969 16.503906 178.144531 15.242188 181.027344 14.046875 C 183.910156 12.855469 186.820312 11.734375 189.757812 10.683594 C 192.699219 9.632812 195.660156 8.652344 198.648438 7.75 C 201.632812 6.84375 204.640625 6.011719 207.667969 5.253906 C 210.695312 4.496094 213.738281 3.8125 216.800781 3.203125 C 219.859375 2.597656 222.933594 2.0625 226.019531 1.605469 C 229.109375 1.148438 232.203125 0.765625 235.308594 0.460938 C 238.414062 0.15625 241.527344 -0.0742188 244.644531 -0.226562 C 247.761719 -0.378906 250.878906 -0.457031 254 -0.457031 C 257.121094 -0.457031 260.238281 -0.378906 263.355469 -0.226562 C 266.472656 -0.0742188 269.585938 0.15625 272.691406 0.460938 C 275.796875 0.765625 278.894531 1.148438 281.980469 1.605469 C 285.066406 2.0625 288.140625 2.597656 291.203125 3.203125 C 294.261719 3.8125 297.304688 4.496094 300.332031 5.253906 C 303.359375 6.011719 306.367188 6.84375 309.355469 7.75 C 312.339844 8.652344 315.300781 9.632812 318.242188 10.683594 C 321.179688 11.734375 324.089844 12.855469 326.972656 14.046875 C 329.855469 15.242188 332.707031 16.503906 335.53125 17.839844 C 338.351562 19.171875 341.136719 20.574219 343.890625 22.042969 C 346.640625 23.511719 349.355469 25.050781 352.03125 26.652344 C 354.710938 28.257812 357.34375 29.925781 359.941406 31.65625 C 362.535156 33.390625 365.085938 35.183594 367.59375 37.042969 C 370.097656 38.898438 372.558594 40.820312 374.972656 42.796875 C 377.382812 44.773438 379.746094 46.8125 382.058594 48.90625 C 384.371094 51 386.628906 53.148438 388.835938 55.355469 C 391.042969 57.558594 393.195312 59.816406 395.289062 62.128906 C 397.386719 64.4375 399.425781 66.800781 401.402344 69.210938 C 403.382812 71.621094 405.304688 74.078125 407.160156 76.585938 C 409.019531 79.089844 410.816406 81.636719 412.550781 84.230469 C 414.285156 86.824219 415.953125 89.457031 417.558594 92.132812 C 419.164062 94.808594 420.699219 97.519531 422.171875 100.269531 C 423.644531 103.019531 425.046875 105.804688 426.378906 108.625 C 427.714844 111.445312 428.976562 114.292969 430.171875 117.175781 C 431.367188 120.054688 432.488281 122.964844 433.539062 125.902344 C 434.59375 128.835938 435.570312 131.796875 436.476562 134.78125 C 437.382812 137.765625 438.214844 140.769531 438.972656 143.796875 C 439.730469 146.820312 440.414062 149.863281 441.023438 152.921875 C 441.632812 155.980469 442.164062 159.050781 442.625 162.136719 C 443.082031 165.222656 443.464844 168.316406 443.769531 171.417969 C 444.074219 174.523438 444.304688 177.632812 444.457031 180.746094 C 444.609375 183.863281 444.6875 186.976562 444.6875 190.097656 Z M 444.6875 190.097656 " clip-rule="nonzero"/></clipPath><linearGradient x1="-44.801484" gradientTransform="matrix(0.787672, 0, 0, 0.787119, 63.312746, -0.456892)" y1="162.838806" x2="529.149886" gradientUnits="userSpaceOnUse" y2="321.391418" id="a2fe454ca5"><stop stop-opacity="1" stop-color="rgb(95.698547%, 95.698547%, 95.698547%)" offset="0"/><stop stop-opacity="1" stop-color="rgb(95.671082%, 95.671082%, 95.671082%)" offset="0.125"/><stop stop-opacity="1" stop-color="rgb(95.480347%, 95.480347%, 95.480347%)" offset="0.1875"/><stop stop-opacity="1" stop-color="rgb(95.155334%, 95.155334%, 95.155334%)" offset="0.216222"/><stop stop-opacity="1" stop-color="rgb(94.993591%, 94.993591%, 94.993591%)" offset="0.25"/><stop stop-opacity="1" stop-color="rgb(94.830322%, 94.830322%, 94.830322%)" offset="0.3125"/><stop stop-opacity="1" stop-color="rgb(94.50531%, 94.50531%, 94.50531%)" offset="0.375"/><stop stop-opacity="1" stop-color="rgb(94.180298%, 94.180298%, 94.180298%)" offset="0.4375"/><stop stop-opacity="1" stop-color="rgb(93.855286%, 93.855286%, 93.855286%)" offset="0.5"/><stop stop-opacity="1" stop-color="rgb(93.530273%, 93.530273%, 93.530273%)" offset="0.5625"/><stop stop-opacity="1" stop-color="rgb(93.205261%, 93.205261%, 93.205261%)" offset="0.625"/><stop stop-opacity="1" stop-color="rgb(92.880249%, 92.880249%, 92.880249%)" offset="0.6875"/><stop stop-opacity="1" stop-color="rgb(92.555237%, 92.555237%, 92.555237%)" offset="0.75"/><stop stop-opacity="1" stop-color="rgb(92.230225%, 92.230225%, 92.230225%)" offset="0.783778"/><stop stop-opacity="1" stop-color="rgb(92.068481%, 92.068481%, 92.068481%)" offset="0.8125"/><stop stop-opacity="1" stop-color="rgb(91.934204%, 91.934204%, 91.934204%)" offset="0.875"/><stop stop-opacity="1" stop-color="rgb(91.799927%, 91.799927%, 91.799927%)" offset="1"/></linearGradient><clipPath id="3f33cf3659"><path d="M 91 27 L 422 27 L 422 358 L 91 358 Z M 91 27 " clip-rule="nonzero"/></clipPath><clipPath id="8013827b47"><path d="M 421.453125 192.59375 C 421.453125 195.289062 421.386719 197.984375 421.253906 200.679688 C 421.121094 203.371094 420.921875 206.0625 420.65625 208.746094 C 420.394531 211.429688 420.0625 214.105469 419.667969 216.773438 C 419.269531 219.441406 418.808594 222.097656 418.28125 224.742188 C 417.753906 227.390625 417.164062 230.019531 416.507812 232.636719 C 415.851562 235.253906 415.132812 237.851562 414.351562 240.433594 C 413.566406 243.015625 412.71875 245.574219 411.8125 248.113281 C 410.902344 250.652344 409.929688 253.167969 408.898438 255.660156 C 407.863281 258.152344 406.769531 260.617188 405.617188 263.054688 C 404.464844 265.492188 403.25 267.902344 401.976562 270.28125 C 400.707031 272.660156 399.375 275.007812 397.988281 277.320312 C 396.601562 279.632812 395.15625 281.910156 393.65625 284.152344 C 392.15625 286.394531 390.605469 288.601562 388.996094 290.765625 C 387.386719 292.933594 385.726562 295.058594 384.015625 297.144531 C 382.304688 299.230469 380.539062 301.269531 378.726562 303.269531 C 376.914062 305.269531 375.054688 307.222656 373.148438 309.128906 C 371.238281 311.035156 369.285156 312.894531 367.285156 314.707031 C 365.285156 316.515625 363.242188 318.277344 361.15625 319.988281 C 359.066406 321.699219 356.941406 323.359375 354.773438 324.964844 C 352.605469 326.574219 350.398438 328.125 348.15625 329.625 C 345.910156 331.121094 343.632812 332.566406 341.316406 333.953125 C 339 335.339844 336.652344 336.667969 334.273438 337.9375 C 331.890625 339.210938 329.480469 340.421875 327.042969 341.574219 C 324.601562 342.730469 322.136719 343.820312 319.640625 344.851562 C 317.148438 345.886719 314.628906 346.855469 312.089844 347.765625 C 309.546875 348.671875 306.984375 349.519531 304.402344 350.300781 C 301.820312 351.085938 299.21875 351.804688 296.601562 352.460938 C 293.984375 353.113281 291.351562 353.707031 288.703125 354.230469 C 286.054688 354.757812 283.398438 355.21875 280.726562 355.613281 C 278.058594 356.011719 275.378906 356.339844 272.695312 356.605469 C 270.007812 356.871094 267.316406 357.066406 264.621094 357.199219 C 261.925781 357.332031 259.226562 357.398438 256.527344 357.398438 C 253.828125 357.398438 251.132812 357.332031 248.4375 357.199219 C 245.742188 357.066406 243.050781 356.871094 240.363281 356.605469 C 237.675781 356.339844 235 356.011719 232.328125 355.613281 C 229.660156 355.21875 227 354.757812 224.355469 354.230469 C 221.707031 353.707031 219.074219 353.113281 216.457031 352.460938 C 213.835938 351.804688 211.238281 351.085938 208.652344 350.300781 C 206.070312 349.519531 203.507812 348.671875 200.96875 347.765625 C 198.425781 346.855469 195.910156 345.886719 193.414062 344.851562 C 190.921875 343.820312 188.453125 342.730469 186.015625 341.574219 C 183.574219 340.421875 181.164062 339.210938 178.785156 337.9375 C 176.402344 336.667969 174.054688 335.339844 171.742188 333.953125 C 169.425781 332.566406 167.148438 331.121094 164.902344 329.625 C 162.660156 328.125 160.453125 326.574219 158.285156 324.964844 C 156.117188 323.359375 153.988281 321.699219 151.902344 319.988281 C 149.816406 318.277344 147.773438 316.515625 145.773438 314.707031 C 143.773438 312.894531 141.820312 311.035156 139.910156 309.128906 C 138.003906 307.222656 136.140625 305.269531 134.328125 303.269531 C 132.515625 301.269531 130.753906 299.230469 129.042969 297.144531 C 127.328125 295.058594 125.667969 292.933594 124.0625 290.765625 C 122.453125 288.601562 120.898438 286.394531 119.402344 284.152344 C 117.902344 281.910156 116.457031 279.632812 115.070312 277.320312 C 113.683594 275.007812 112.351562 272.660156 111.078125 270.28125 C 109.808594 267.902344 108.59375 265.492188 107.441406 263.054688 C 106.285156 260.617188 105.191406 258.152344 104.160156 255.660156 C 103.128906 253.167969 102.15625 250.652344 101.246094 248.113281 C 100.335938 245.574219 99.492188 243.015625 98.707031 240.433594 C 97.925781 237.851562 97.203125 235.253906 96.546875 232.636719 C 95.894531 230.019531 95.300781 227.390625 94.773438 224.742188 C 94.25 222.097656 93.785156 219.441406 93.390625 216.773438 C 92.996094 214.105469 92.664062 211.429688 92.398438 208.746094 C 92.136719 206.0625 91.9375 203.371094 91.804688 200.679688 C 91.671875 197.984375 91.605469 195.289062 91.605469 192.59375 C 91.605469 189.894531 91.671875 187.199219 91.804688 184.503906 C 91.9375 181.8125 92.136719 179.121094 92.398438 176.4375 C 92.664062 173.753906 92.996094 171.078125 93.390625 168.410156 C 93.785156 165.742188 94.25 163.085938 94.773438 160.441406 C 95.300781 157.792969 95.894531 155.164062 96.546875 152.546875 C 97.203125 149.929688 97.925781 147.332031 98.707031 144.75 C 99.492188 142.167969 100.335938 139.609375 101.246094 137.070312 C 102.15625 134.53125 103.128906 132.015625 104.160156 129.523438 C 105.191406 127.03125 106.285156 124.566406 107.441406 122.128906 C 108.59375 119.691406 109.808594 117.28125 111.078125 114.902344 C 112.351562 112.523438 113.683594 110.175781 115.070312 107.863281 C 116.457031 105.550781 117.902344 103.273438 119.402344 101.03125 C 120.898438 98.789062 122.453125 96.582031 124.0625 94.417969 C 125.667969 92.25 127.328125 90.125 129.042969 88.039062 C 130.753906 85.953125 132.515625 83.914062 134.328125 81.914062 C 136.140625 79.914062 138.003906 77.964844 139.910156 76.054688 C 141.820312 74.148438 143.773438 72.289062 145.773438 70.476562 C 147.773438 68.667969 149.816406 66.90625 151.902344 65.195312 C 153.988281 63.484375 156.117188 61.824219 158.285156 60.21875 C 160.453125 58.609375 162.660156 57.058594 164.902344 55.558594 C 167.148438 54.0625 169.425781 52.617188 171.742188 51.230469 C 174.054688 49.84375 176.402344 48.515625 178.785156 47.246094 C 181.164062 45.972656 183.574219 44.761719 186.015625 43.609375 C 188.453125 42.453125 190.921875 41.363281 193.414062 40.332031 C 195.910156 39.296875 198.425781 38.328125 200.96875 37.417969 C 203.507812 36.511719 206.070312 35.664062 208.652344 34.882812 C 211.238281 34.097656 213.835938 33.378906 216.457031 32.722656 C 219.074219 32.070312 221.707031 31.476562 224.355469 30.953125 C 227 30.425781 229.660156 29.964844 232.328125 29.570312 C 235 29.171875 237.675781 28.84375 240.363281 28.578125 C 243.050781 28.3125 245.742188 28.117188 248.4375 27.984375 C 251.132812 27.851562 253.828125 27.785156 256.527344 27.785156 C 259.226562 27.785156 261.925781 27.851562 264.621094 27.984375 C 267.316406 28.117188 270.007812 28.3125 272.695312 28.578125 C 275.378906 28.84375 278.058594 29.171875 280.726562 29.570312 C 283.398438 29.964844 286.054688 30.425781 288.703125 30.953125 C 291.351562 31.476562 293.984375 32.070312 296.601562 32.722656 C 299.21875 33.378906 301.820312 34.097656 304.402344 34.882812 C 306.984375 35.664062 309.546875 36.511719 312.089844 37.417969 C 314.628906 38.328125 317.148438 39.296875 319.640625 40.332031 C 322.136719 41.363281 324.601562 42.453125 327.042969 43.609375 C 329.480469 44.761719 331.890625 45.972656 334.273438 47.246094 C 336.652344 48.515625 339 49.84375 341.316406 51.230469 C 343.632812 52.617188 345.910156 54.0625 348.15625 55.558594 C 350.398438 57.058594 352.605469 58.609375 354.773438 60.21875 C 356.941406 61.824219 359.066406 63.484375 361.15625 65.195312 C 363.242188 66.90625 365.285156 68.667969 367.285156 70.476562 C 369.285156 72.289062 371.238281 74.148438 373.148438 76.054688 C 375.054688 77.964844 376.914062 79.914062 378.726562 81.914062 C 380.539062 83.914062 382.304688 85.953125 384.015625 88.039062 C 385.726562 90.125 387.386719 92.25 388.996094 94.417969 C 390.605469 96.582031 392.15625 98.789062 393.65625 101.03125 C 395.15625 103.273438 396.601562 105.550781 397.988281 107.863281 C 399.375 110.175781 400.707031 112.523438 401.976562 114.902344 C 403.25 117.28125 404.464844 119.691406 405.617188 122.128906 C 406.769531 124.566406 407.863281 127.03125 408.898438 129.523438 C 409.929688 132.015625 410.902344 134.53125 411.8125 137.070312 C 412.71875 139.609375 413.566406 142.167969 414.351562 144.75 C 415.132812 147.332031 415.851562 149.929688 416.507812 152.546875 C 417.164062 155.164062 417.753906 157.792969 418.28125 160.441406 C 418.808594 163.085938 419.269531 165.742188 419.667969 168.410156 C 420.0625 171.078125 420.394531 173.753906 420.65625 176.4375 C 420.921875 179.121094 421.121094 181.8125 421.253906 184.503906 C 421.386719 187.199219 421.453125 189.894531 421.453125 192.59375 Z M 421.453125 192.59375 " clip-rule="nonzero"/></clipPath><linearGradient x1="-7.278375" gradientTransform="matrix(0.787672, 0, 0, 0.787119, 63.312746, -0.456892)" y1="147.608596" x2="497.875211" gradientUnits="userSpaceOnUse" y2="342.919456" id="fc190cefff"><stop stop-opacity="1" stop-color="rgb(89.7995%, 90.19928%, 90.59906%)" offset="0"/><stop stop-opacity="1" stop-color="rgb(89.855957%, 90.255737%, 90.655518%)" offset="0.125"/><stop stop-opacity="1" stop-color="rgb(90.05127%, 90.45105%, 90.85083%)" offset="0.15625"/><stop stop-opacity="1" stop-color="rgb(90.327454%, 90.727234%, 91.127014%)" offset="0.1875"/><stop stop-opacity="1" stop-color="rgb(90.602112%, 91.003418%, 91.403198%)" offset="0.21875"/><stop stop-opacity="1" stop-color="rgb(90.878296%, 91.278076%, 91.677856%)" offset="0.25"/><stop stop-opacity="1" stop-color="rgb(91.15448%, 91.55426%, 91.954041%)" offset="0.278831"/><stop stop-opacity="1" stop-color="rgb(91.291809%, 91.691589%, 92.092896%)" offset="0.28125"/><stop stop-opacity="1" stop-color="rgb(91.429138%, 91.828918%, 92.230225%)" offset="0.3125"/><stop stop-opacity="1" stop-color="rgb(91.705322%, 92.105103%, 92.504883%)" offset="0.34375"/><stop stop-opacity="1" stop-color="rgb(91.981506%, 92.381287%, 92.781067%)" offset="0.375"/><stop stop-opacity="1" stop-color="rgb(92.256165%, 92.655945%, 93.057251%)" offset="0.40625"/><stop stop-opacity="1" stop-color="rgb(92.478943%, 92.877197%, 93.275452%)" offset="0.421875"/><stop stop-opacity="1" stop-color="rgb(92.697144%, 93.084717%, 93.475342%)" offset="0.4375"/><stop stop-opacity="1" stop-color="rgb(92.962646%, 93.338013%, 93.713379%)" offset="0.453125"/><stop stop-opacity="1" stop-color="rgb(93.228149%, 93.589783%, 93.951416%)" offset="0.46875"/><stop stop-opacity="1" stop-color="rgb(93.495178%, 93.841553%, 94.187927%)" offset="0.484375"/><stop stop-opacity="1" stop-color="rgb(93.760681%, 94.093323%, 94.425964%)" offset="0.5"/><stop stop-opacity="1" stop-color="rgb(94.026184%, 94.345093%, 94.664001%)" offset="0.515625"/><stop stop-opacity="1" stop-color="rgb(94.293213%, 94.596863%, 94.902039%)" offset="0.53125"/><stop stop-opacity="1" stop-color="rgb(94.558716%, 94.848633%, 95.13855%)" offset="0.546875"/><stop stop-opacity="1" stop-color="rgb(94.824219%, 95.100403%, 95.376587%)" offset="0.5625"/><stop stop-opacity="1" stop-color="rgb(95.091248%, 95.352173%, 95.614624%)" offset="0.578125"/><stop stop-opacity="1" stop-color="rgb(95.35675%, 95.603943%, 95.852661%)" offset="0.59375"/><stop stop-opacity="1" stop-color="rgb(95.622253%, 95.855713%, 96.089172%)" offset="0.609375"/><stop stop-opacity="1" stop-color="rgb(95.889282%, 96.107483%, 96.327209%)" offset="0.625"/><stop stop-opacity="1" stop-color="rgb(96.154785%, 96.359253%, 96.565247%)" offset="0.640625"/><stop stop-opacity="1" stop-color="rgb(96.420288%, 96.611023%, 96.803284%)" offset="0.65625"/><stop stop-opacity="1" stop-color="rgb(96.687317%, 96.862793%, 97.039795%)" offset="0.671875"/><stop stop-opacity="1" stop-color="rgb(96.95282%, 97.114563%, 97.277832%)" offset="0.6875"/><stop stop-opacity="1" stop-color="rgb(97.218323%, 97.366333%, 97.515869%)" offset="0.703125"/><stop stop-opacity="1" stop-color="rgb(97.485352%, 97.618103%, 97.753906%)" offset="0.71875"/><stop stop-opacity="1" stop-color="rgb(97.750854%, 97.869873%, 97.990417%)" offset="0.721169"/><stop stop-opacity="1" stop-color="rgb(97.885132%, 97.996521%, 98.109436%)" offset="0.734375"/><stop stop-opacity="1" stop-color="rgb(98.017883%, 98.121643%, 98.228455%)" offset="0.75"/><stop stop-opacity="1" stop-color="rgb(98.283386%, 98.374939%, 98.466492%)" offset="0.765625"/><stop stop-opacity="1" stop-color="rgb(98.548889%, 98.626709%, 98.704529%)" offset="0.78125"/><stop stop-opacity="1" stop-color="rgb(98.815918%, 98.878479%, 98.94104%)" offset="0.796875"/><stop stop-opacity="1" stop-color="rgb(99.081421%, 99.130249%, 99.179077%)" offset="0.8125"/><stop stop-opacity="1" stop-color="rgb(99.346924%, 99.382019%, 99.417114%)" offset="0.828125"/><stop stop-opacity="1" stop-color="rgb(99.613953%, 99.633789%, 99.655151%)" offset="0.84375"/><stop stop-opacity="1" stop-color="rgb(99.873352%, 99.879456%, 99.887085%)" offset="0.875"/><stop stop-opacity="1" stop-color="rgb(100%, 100%, 100%)" offset="1"/></linearGradient><clipPath id="d438a9f66a"><path d="M 325 248.433594 L 391 248.433594 L 391 261.171875 L 325 261.171875 Z M 325 248.433594 " clip-rule="nonzero"/></clipPath><clipPath id="22b6b4d3fd"><path d="M 0.171875 0.0625 L 508 0.0625 L 508 381.4375 L 0.171875 381.4375 Z M 0.171875 0.0625 " clip-rule="nonzero"/></clipPath></defs><g clip-path="url(#e9a333d2a3)"><g clip-path="url(#47c97fdb99)"><path fill="url(#a2fe454ca5)" d="M 63.3125 0.0625 L 63.3125 380.648438 L 444.6875 380.648438 L 444.6875 0.0625 Z M 63.3125 0.0625 " fill-rule="nonzero"/></g></g><g clip-path="url(#3f33cf3659)"><g clip-path="url(#8013827b47)"><path fill="url(#fc190cefff)" d="M 91.605469 27.785156 L 91.605469 357.398438 L 421.453125 357.398438 L 421.453125 27.785156 Z M 91.605469 27.785156 " fill-rule="nonzero"/></g></g><path fill="#0059a1" d="M 261.472656 128.808594 L 272.726562 117.558594 L 321.875 166.671875 L 310.617188 177.917969 Z M 261.472656 128.808594 " fill-opacity="1" fill-rule="nonzero"/><path fill="#88929d" d="M 245.550781 91.164062 L 256.804688 79.914062 L 305.953125 129.027344 L 294.695312 140.277344 Z M 245.550781 91.164062 " fill-opacity="1" fill-rule="nonzero"/><path fill="#88929d" d="M 207.109375 129.570312 L 218.367188 118.320312 L 267.515625 167.433594 L 256.257812 178.683594 Z M 207.109375 129.570312 " fill-opacity="1" fill-rule="nonzero"/><path fill="#008944" d="M 202.445312 81.464844 L 191.183594 92.714844 L 164 119.878906 L 152.746094 131.125 L 201.894531 180.242188 L 202.296875 179.839844 L 213.152344 168.992188 L 240.335938 141.832031 L 251.449219 130.722656 L 251.589844 130.582031 Z M 201.894531 157.746094 L 175.265625 131.125 L 202.445312 103.960938 L 229.078125 130.582031 Z M 201.894531 157.746094 " fill-opacity="1" fill-rule="nonzero"/><path fill="#88929d" d="M 294.546875 117.917969 L 305.804688 129.167969 L 256.65625 178.28125 L 245.402344 167.03125 Z M 294.546875 117.917969 " fill-opacity="1" fill-rule="nonzero"/><path fill="#8a949f" d="M 256.53125 80.191406 L 267.785156 91.4375 L 218.640625 140.550781 L 207.382812 129.300781 Z M 256.53125 80.191406 " fill-opacity="1" fill-rule="nonzero"/><path fill="#0059a1" d="M 310.894531 79.410156 L 322.148438 90.65625 L 273.003906 139.769531 L 261.746094 128.519531 Z M 310.894531 79.410156 " fill-opacity="1" fill-rule="nonzero"/><path fill="#0059a1" d="M 299.910156 90.390625 L 311.164062 79.144531 L 360.3125 128.257812 L 349.054688 139.503906 Z M 299.910156 90.390625 " fill-opacity="1" fill-rule="nonzero"/><path fill="#0059a1" d="M 348.917969 117.144531 L 360.171875 128.390625 L 311.027344 177.503906 L 299.769531 166.257812 Z M 348.917969 117.144531 " fill-opacity="1" fill-rule="nonzero"/><g fill="#000000" fill-opacity="1"><g transform="translate(142.780963, 253.373149)"><g><path d="M 10.59375 -24.265625 C 10.59375 -16.492188 11.890625 -10.859375 14.484375 -7.359375 C 17.085938 -3.867188 21.160156 -2.125 26.703125 -2.125 C 32.222656 -2.125 36.296875 -3.867188 38.921875 -7.359375 C 41.546875 -10.859375 42.859375 -16.492188 42.859375 -24.265625 C 42.859375 -31.992188 41.550781 -37.5625 38.9375 -40.96875 C 36.320312 -44.375 32.242188 -46.078125 26.703125 -46.078125 C 21.140625 -46.078125 17.0625 -44.375 14.46875 -40.96875 C 11.882812 -37.5625 10.59375 -31.992188 10.59375 -24.265625 Z M 3.03125 -24.265625 C 3.03125 -40.734375 10.921875 -48.96875 26.703125 -48.96875 C 34.515625 -48.96875 40.421875 -46.878906 44.421875 -42.703125 C 48.421875 -38.523438 50.421875 -32.378906 50.421875 -24.265625 C 50.421875 -16.035156 48.394531 -9.8125 44.34375 -5.59375 C 40.289062 -1.382812 34.410156 0.71875 26.703125 0.71875 C 19.015625 0.71875 13.144531 -1.378906 9.09375 -5.578125 C 5.050781 -9.773438 3.03125 -16.003906 3.03125 -24.265625 Z M 3.03125 -24.265625 "/></g></g></g><g fill="#000000" fill-opacity="1"><g transform="translate(196.222446, 253.373149)"><g><path d="M 15.328125 -21.734375 L 15.328125 -2.890625 L 23.390625 -1.90625 L 23.390625 0 L 2.609375 0 L 2.609375 -1.90625 L 8.34375 -2.890625 L 8.34375 -45.578125 L 2.125 -46.515625 L 2.125 -48.421875 L 38.484375 -48.421875 L 38.484375 -36.828125 L 36.109375 -36.828125 L 34.953125 -44.671875 C 32.253906 -45.003906 28.347656 -45.171875 23.234375 -45.171875 L 15.328125 -45.171875 L 15.328125 -24.984375 L 29.59375 -24.984375 L 30.71875 -30.765625 L 32.921875 -30.765625 L 32.921875 -15.890625 L 30.71875 -15.890625 L 29.59375 -21.734375 Z M 15.328125 -21.734375 "/></g></g></g><g fill="#000000" fill-opacity="1"><g transform="translate(237.378532, 253.373149)"><g><path d="M 31.015625 -34.09375 C 31.015625 -38.0625 30.082031 -40.898438 28.21875 -42.609375 C 26.363281 -44.316406 23.242188 -45.171875 18.859375 -45.171875 L 15.328125 -45.171875 L 15.328125 -22.25 L 19.078125 -22.25 C 23.148438 -22.25 26.15625 -23.171875 28.09375 -25.015625 C 30.039062 -26.867188 31.015625 -29.894531 31.015625 -34.09375 Z M 15.328125 -19 L 15.328125 -2.890625 L 23.015625 -1.90625 L 23.015625 0 L 2.609375 0 L 2.609375 -1.90625 L 8.34375 -2.890625 L 8.34375 -45.578125 L 2.125 -46.515625 L 2.125 -48.421875 L 20.421875 -48.421875 C 32.273438 -48.421875 38.203125 -43.664062 38.203125 -34.15625 C 38.203125 -29.195312 36.703125 -25.429688 33.703125 -22.859375 C 30.703125 -20.285156 26.394531 -19 20.78125 -19 Z M 15.328125 -19 "/></g></g></g><g fill="#000000" fill-opacity="1"><g transform="translate(278.534618, 253.373149)"><g><path d="M 31.015625 -34.09375 C 31.015625 -38.0625 30.082031 -40.898438 28.21875 -42.609375 C 26.363281 -44.316406 23.242188 -45.171875 18.859375 -45.171875 L 15.328125 -45.171875 L 15.328125 -22.25 L 19.078125 -22.25 C 23.148438 -22.25 26.15625 -23.171875 28.09375 -25.015625 C 30.039062 -26.867188 31.015625 -29.894531 31.015625 -34.09375 Z M 15.328125 -19 L 15.328125 -2.890625 L 23.015625 -1.90625 L 23.015625 0 L 2.609375 0 L 2.609375 -1.90625 L 8.34375 -2.890625 L 8.34375 -45.578125 L 2.125 -46.515625 L 2.125 -48.421875 L 20.421875 -48.421875 C 32.273438 -48.421875 38.203125 -43.664062 38.203125 -34.15625 C 38.203125 -29.195312 36.703125 -25.429688 33.703125 -22.859375 C 30.703125 -20.285156 26.394531 -19 20.78125 -19 Z M 15.328125 -19 "/></g></g></g><g fill="#000000" fill-opacity="1"><g transform="translate(319.690704, 253.373149)"><g><path d="M 11.390625 0 L 11.390625 -1.90625 L 19.078125 -2.890625 L 19.078125 -45.3125 L 17.234375 -45.3125 C 11.140625 -45.3125 6.972656 -45.070312 4.734375 -44.59375 L 3.765625 -37.046875 L 1.34375 -37.046875 L 1.34375 -48.421875 L 43.984375 -48.421875 L 43.984375 -37.046875 L 41.53125 -37.046875 L 40.546875 -44.59375 C 39.828125 -44.757812 38.25 -44.910156 35.8125 -45.046875 C 33.382812 -45.179688 30.722656 -45.25 27.828125 -45.25 L 26.0625 -45.25 L 26.0625 -2.890625 L 33.75 -1.90625 L 33.75 0 Z M 11.390625 0 "/></g></g></g><path fill="#126aa8" d="M 165.519531 290.980469 C 164.988281 292.625 164.347656 294.222656 163.597656 295.773438 L 149.871094 295.773438 L 150.058594 294.855469 C 152.257812 294.671875 152.546875 294.445312 152.964844 292.257812 L 155.203125 280.75 C 155.613281 278.671875 155.34375 278.496094 153.074219 278.308594 L 153.3125 277.371094 L 161.574219 277.371094 L 161.394531 278.308594 C 159.03125 278.472656 158.824219 278.695312 158.449219 280.765625 L 156.257812 291.949219 C 155.855469 294.066406 156.015625 294.585938 157.738281 294.585938 L 159.3125 294.585938 C 160.683594 294.585938 161.496094 294.445312 162.394531 293.625 C 163.269531 292.730469 164 291.730469 164.589844 290.628906 Z M 165.519531 290.980469 " fill-opacity="1" fill-rule="nonzero"/><path fill="#126aa8" d="M 180.148438 293.019531 C 178.667969 294.964844 176.707031 296.113281 175.632812 296.113281 C 174.753906 296.113281 174.320312 295.328125 174.847656 292.722656 L 175.113281 291.390625 C 174.242188 292.703125 173.191406 293.855469 171.964844 294.847656 C 171.171875 295.601562 170.226562 296.023438 169.136719 296.113281 C 168.019531 296.113281 167.128906 294.949219 167.128906 292.660156 C 167.132812 291.257812 167.40625 289.910156 167.953125 288.621094 C 168.5 287.332031 169.273438 286.199219 170.277344 285.21875 C 171.058594 284.511719 171.933594 283.960938 172.910156 283.5625 C 173.882812 283.164062 174.898438 282.945312 175.949219 282.90625 C 177.203125 282.980469 178.445312 283.144531 179.675781 283.402344 C 179.132812 285.464844 178.179688 289.785156 177.730469 292.4375 C 177.613281 293.167969 177.644531 293.539062 177.871094 293.539062 C 178.101562 293.539062 178.824219 293.128906 179.714844 292.21875 Z M 174.445312 290.707031 C 175.082031 289.820312 175.527344 288.851562 175.792969 287.792969 C 176.058594 286.660156 176.367188 285.363281 176.476562 284.644531 C 175.859375 284.375 175.214844 284.238281 174.539062 284.226562 C 171.679688 284.226562 170.300781 288.792969 170.339844 292.027344 C 170.339844 293.160156 170.648438 293.730469 171.128906 293.730469 C 171.824219 293.714844 172.917969 292.878906 174.445312 290.707031 Z M 174.445312 290.707031 " fill-opacity="1" fill-rule="nonzero"/><path fill="#126aa8" d="M 206.976562 278.308594 C 205.109375 278.546875 204.613281 278.726562 203.109375 281.199219 C 201.15625 284.300781 196.910156 291.25 194.105469 296.058594 L 192.867188 296.058594 C 192.175781 290.824219 191.144531 283.992188 190.625 280.8125 C 190.285156 278.695312 189.992188 278.53125 188.160156 278.308594 L 188.394531 277.371094 L 196.042969 277.371094 L 195.785156 278.308594 L 195.121094 278.402344 C 194.011719 278.5625 193.65625 278.765625 193.765625 279.875 C 193.949219 281.628906 194.765625 286.960938 195.390625 291.492188 C 197.445312 288.171875 200.574219 282.882812 201.894531 280.472656 C 202.761719 278.898438 202.273438 278.5625 200.863281 278.371094 L 200.265625 278.300781 L 200.507812 277.363281 L 207.179688 277.363281 Z M 206.976562 278.308594 " fill-opacity="1" fill-rule="nonzero"/><path fill="#126aa8" d="M 214.679688 287.457031 C 214.691406 288.203125 214.609375 288.941406 214.433594 289.667969 C 214.253906 290.394531 213.988281 291.089844 213.632812 291.746094 C 213.277344 292.40625 212.847656 293.007812 212.335938 293.554688 C 211.824219 294.105469 211.253906 294.578125 210.625 294.980469 C 209.484375 295.699219 208.242188 296.078125 206.898438 296.113281 C 203.746094 296.113281 202.769531 293.707031 202.769531 291.546875 C 202.742188 290.710938 202.835938 289.886719 203.054688 289.074219 C 203.273438 288.265625 203.605469 287.503906 204.046875 286.792969 C 204.492188 286.082031 205.027344 285.449219 205.660156 284.898438 C 206.292969 284.34375 206.992188 283.894531 207.757812 283.550781 C 208.664062 283.152344 209.613281 282.9375 210.605469 282.90625 C 213.292969 282.90625 214.679688 284.675781 214.679688 287.457031 Z M 206.015625 291.546875 C 206.015625 293.714844 206.738281 294.871094 207.984375 294.871094 C 210.199219 294.871094 211.441406 290.707031 211.441406 287.367188 C 211.441406 285.109375 210.65625 284.140625 209.503906 284.140625 C 206.90625 284.140625 206.023438 289.203125 206.023438 291.5625 Z M 206.015625 291.546875 " fill-opacity="1" fill-rule="nonzero"/><path fill="#126aa8" d="M 222.949219 293.136719 C 221.296875 295.199219 219.367188 296.144531 218.3125 296.144531 C 217.445312 296.144531 217.003906 295.359375 217.523438 293.257812 C 218.042969 291.15625 218.726562 288.488281 219.191406 286.449219 C 219.367188 285.730469 219.335938 285.472656 219.113281 285.472656 C 218.46875 285.683594 217.914062 286.035156 217.445312 286.527344 L 217.035156 285.675781 C 218.734375 283.976562 220.722656 282.945312 221.722656 282.945312 C 222.597656 282.945312 222.753906 283.851562 222.164062 286.296875 C 221.699219 288.148438 221.058594 290.738281 220.585938 292.59375 C 220.390625 293.320312 220.390625 293.6875 220.585938 293.6875 C 221.355469 293.417969 221.996094 292.960938 222.5 292.320312 Z M 223.539062 278.75 C 223.550781 279.007812 223.511719 279.257812 223.417969 279.5 C 223.328125 279.742188 223.195312 279.957031 223.019531 280.144531 C 222.839844 280.335938 222.636719 280.480469 222.398438 280.585938 C 222.164062 280.691406 221.917969 280.75 221.660156 280.757812 C 221.445312 280.769531 221.238281 280.742188 221.039062 280.664062 C 220.839844 280.589844 220.664062 280.476562 220.511719 280.328125 C 220.363281 280.175781 220.25 280 220.175781 279.800781 C 220.097656 279.601562 220.070312 279.394531 220.082031 279.183594 C 220.082031 278.917969 220.132812 278.664062 220.234375 278.421875 C 220.335938 278.175781 220.476562 277.960938 220.664062 277.773438 C 220.847656 277.585938 221.0625 277.441406 221.308594 277.339844 C 221.550781 277.238281 221.804688 277.1875 222.066406 277.183594 C 222.269531 277.175781 222.464844 277.210938 222.65625 277.285156 C 222.84375 277.363281 223.007812 277.472656 223.148438 277.621094 C 223.289062 277.769531 223.394531 277.9375 223.460938 278.128906 C 223.53125 278.320312 223.558594 278.515625 223.539062 278.71875 Z M 223.539062 278.75 " fill-opacity="1" fill-rule="nonzero"/><path fill="#126aa8" d="M 228.480469 296.113281 C 226.90625 296.113281 225.039062 295.222656 225.039062 291.839844 C 225.019531 290.441406 225.296875 289.105469 225.875 287.835938 C 226.453125 286.5625 227.273438 285.472656 228.335938 284.566406 C 229.609375 283.570312 231.050781 283.015625 232.664062 282.90625 C 234.570312 282.90625 235.496094 284.015625 235.496094 285.3125 C 235.496094 288.242188 231.246094 289.4375 228.304688 289.988281 C 228.304688 290.273438 228.25 290.878906 228.25 291.109375 C 228.25 292.632812 228.699219 294.035156 230.316406 294.035156 C 231.660156 294.035156 233.117188 293.25 234.488281 291.800781 L 234.929688 292.632812 C 232.726562 295.214844 230.378906 296.113281 228.480469 296.113281 Z M 228.386719 288.972656 C 231.734375 288.25 232.664062 287.023438 232.671875 285.597656 C 232.671875 284.652344 232.15625 284.203125 231.417969 284.203125 C 230.675781 284.203125 229.015625 284.992188 228.386719 288.972656 Z M 228.386719 288.972656 " fill-opacity="1" fill-rule="nonzero"/><path fill="#126aa8" d="M 256.820312 293.035156 C 255.199219 295.160156 253.339844 296.121094 252.378906 296.121094 C 251.417969 296.121094 250.914062 295.335938 251.496094 292.625 L 251.746094 291.421875 C 250.171875 293.648438 247.535156 296.144531 245.570312 296.144531 C 244.265625 296.144531 243.351562 294.933594 243.351562 292.53125 C 243.320312 291.9375 243.347656 291.347656 243.433594 290.757812 C 243.519531 290.167969 243.660156 289.59375 243.855469 289.03125 C 244.050781 288.46875 244.300781 287.933594 244.601562 287.417969 C 244.902344 286.90625 245.253906 286.425781 245.648438 285.980469 C 246.042969 285.535156 246.476562 285.132812 246.949219 284.769531 C 247.421875 284.410156 247.925781 284.097656 248.457031 283.832031 C 248.992188 283.570312 249.546875 283.359375 250.121094 283.203125 C 250.695312 283.046875 251.28125 282.949219 251.875 282.90625 C 252.414062 282.882812 252.941406 282.964844 253.449219 283.148438 L 254.238281 279.160156 C 254.464844 277.882812 254.238281 277.765625 253.140625 277.664062 C 252.875 277.664062 252.355469 277.609375 252.25 277.609375 L 252.457031 276.734375 C 253.839844 276.566406 255.207031 276.304688 256.550781 275.949219 C 256.871094 275.851562 257.191406 275.777344 257.519531 275.726562 C 257.835938 275.726562 257.875 276.019531 257.734375 276.617188 C 256.519531 281.84375 255.0625 288.574219 254.324219 292.539062 C 254.179688 293.273438 254.238281 293.617188 254.457031 293.617188 C 254.675781 293.617188 255.480469 293.152344 256.394531 292.179688 Z M 251.304688 290.484375 C 251.921875 289.601562 252.324219 288.632812 252.511719 287.574219 L 253.078125 285.101562 C 252.398438 284.464844 251.597656 284.183594 250.667969 284.257812 C 247.886719 284.257812 246.636719 288.652344 246.636719 291.863281 C 246.636719 293.136719 246.980469 293.777344 247.582031 293.777344 C 248.597656 293.777344 250.078125 292.265625 251.265625 290.484375 Z M 251.304688 290.484375 " fill-opacity="1" fill-rule="nonzero"/><path fill="#126aa8" d="M 262.082031 296.113281 C 260.507812 296.113281 258.640625 295.222656 258.640625 291.839844 C 258.621094 290.441406 258.898438 289.105469 259.476562 287.835938 C 260.054688 286.5625 260.875 285.472656 261.941406 284.566406 C 263.199219 283.582031 264.628906 283.03125 266.226562 282.914062 C 268.132812 282.914062 269.050781 284.023438 269.050781 285.324219 C 269.050781 288.25 264.800781 289.445312 261.867188 289.996094 C 261.867188 290.28125 261.804688 290.886719 261.804688 291.117188 C 261.804688 292.640625 262.261719 294.042969 263.871094 294.042969 C 265.214844 294.042969 266.675781 293.257812 268.042969 291.808594 L 268.484375 292.640625 C 266.320312 295.214844 263.972656 296.113281 262.082031 296.113281 Z M 261.980469 288.972656 C 265.335938 288.25 266.257812 287.023438 266.265625 285.597656 C 266.265625 284.652344 265.761719 284.203125 265.019531 284.203125 C 264.28125 284.203125 262.59375 284.992188 261.980469 288.972656 Z M 261.980469 288.972656 " fill-opacity="1" fill-rule="nonzero"/><path fill="#126aa8" d="M 282.835938 293.082031 C 281.183594 295.144531 279.222656 296.113281 278.214844 296.113281 C 277.363281 296.113281 276.84375 295.53125 277.425781 292.847656 C 278.292969 288.667969 279.402344 283.363281 280.269531 279.097656 C 280.511719 277.882812 280.371094 277.773438 279.355469 277.671875 C 279.078125 277.671875 278.621094 277.585938 278.449219 277.585938 L 278.679688 276.742188 C 280.011719 276.59375 281.324219 276.332031 282.617188 275.957031 C 282.917969 275.824219 283.234375 275.75 283.5625 275.726562 C 283.867188 275.726562 283.890625 276.019531 283.75 276.6875 C 282.585938 281.867188 281.175781 288.691406 280.386719 292.53125 C 280.238281 293.273438 280.246094 293.5625 280.472656 293.5625 C 281.234375 293.304688 281.863281 292.859375 282.355469 292.226562 Z M 282.835938 293.082031 " fill-opacity="1" fill-rule="nonzero"/><path fill="#126aa8" d="M 285.894531 282.269531 C 287.523438 281.679688 288.703125 280.835938 288.730469 279.5625 C 288.730469 278.71875 288.234375 278.472656 287.320312 278.050781 C 287.015625 277.875 286.871094 277.613281 286.894531 277.261719 C 286.890625 277.039062 286.9375 276.828125 287.027344 276.625 C 287.113281 276.417969 287.242188 276.242188 287.40625 276.09375 C 287.570312 275.941406 287.757812 275.832031 287.96875 275.761719 C 288.179688 275.691406 288.398438 275.667969 288.617188 275.6875 C 290.019531 275.6875 290.980469 276.964844 290.941406 278.464844 C 290.941406 281.007812 288.476562 282.628906 286.214844 283.1875 Z M 285.894531 282.269531 " fill-opacity="1" fill-rule="nonzero"/><path fill="#126aa8" d="M 303.6875 295.773438 L 295.96875 295.773438 L 296.179688 294.855469 C 298.179688 294.640625 298.300781 294.3125 298.140625 293.019531 C 298 291.988281 297.808594 290.816406 297.605469 289.5 L 292.042969 289.5 C 291.523438 290.46875 290.746094 291.761719 290.210938 292.871094 C 289.515625 294.265625 289.699219 294.609375 292.027344 294.855469 L 291.816406 295.773438 L 285.019531 295.773438 L 285.253906 294.855469 C 287.273438 294.585938 287.617188 294.398438 289.121094 291.800781 L 297.519531 277.253906 L 298.730469 277.082031 C 299.90625 284.535156 300.652344 288.699219 301.246094 292.179688 C 301.589844 294.328125 301.78125 294.617188 303.9375 294.855469 Z M 296.417969 281.527344 L 296.359375 281.527344 C 295.132812 283.8125 293.816406 286.132812 292.714844 288.1875 L 297.441406 288.1875 Z M 296.417969 281.527344 " fill-opacity="1" fill-rule="nonzero"/><path fill="#126aa8" d="M 303.269531 285.808594 C 304.554688 284.101562 306.152344 282.914062 307.207031 282.914062 C 308.261719 282.914062 308.59375 283.992188 308.742188 286.34375 C 308.964844 289.542969 308.980469 291.714844 309.035156 292.980469 C 310.65625 291.050781 312.972656 288.257812 312.972656 286.480469 C 312.933594 285.890625 312.75 285.351562 312.429688 284.859375 C 312.351562 284.660156 312.257812 284.496094 312.375 284.265625 C 312.566406 283.882812 312.839844 283.574219 313.195312 283.332031 C 313.550781 283.089844 313.941406 282.953125 314.367188 282.914062 C 315.15625 282.914062 315.558594 283.597656 315.589844 284.675781 C 315.589844 285.605469 315.171875 286.96875 313.816406 288.839844 C 311.867188 291.371094 309.792969 293.792969 307.59375 296.113281 L 306.515625 296.113281 C 306.378906 294.035156 306.222656 290.171875 305.882812 287.023438 C 305.757812 285.769531 305.640625 285.363281 305.324219 285.363281 C 305.011719 285.363281 304.539062 285.707031 303.75 286.636719 Z M 303.269531 285.808594 " fill-opacity="1" fill-rule="nonzero"/><path fill="#126aa8" d="M 320.378906 296.113281 C 318.800781 296.113281 316.933594 295.222656 316.933594 291.839844 C 316.914062 290.441406 317.195312 289.105469 317.773438 287.835938 C 318.347656 286.5625 319.171875 285.472656 320.234375 284.566406 C 321.496094 283.582031 322.925781 283.03125 324.519531 282.914062 C 326.425781 282.914062 327.355469 284.023438 327.355469 285.324219 C 327.355469 288.25 323.09375 289.445312 320.164062 289.996094 C 320.164062 290.28125 320.109375 290.886719 320.109375 291.117188 C 320.109375 292.640625 320.558594 294.042969 322.171875 294.042969 C 323.519531 294.042969 324.976562 293.257812 326.347656 291.808594 L 326.789062 292.640625 C 324.621094 295.214844 322.277344 296.113281 320.378906 296.113281 Z M 320.273438 288.972656 C 323.628906 288.25 324.558594 287.023438 324.566406 285.597656 C 324.566406 284.652344 324.054688 284.203125 323.316406 284.203125 C 322.574219 284.203125 320.882812 284.992188 320.273438 288.972656 Z M 320.273438 288.972656 " fill-opacity="1" fill-rule="nonzero"/><path fill="#126aa8" d="M 342.589844 293.058594 C 340.902344 295.207031 338.988281 296.113281 338.003906 296.113281 C 337.019531 296.113281 336.636719 295.46875 337.179688 292.964844 C 337.570312 291.125 338.117188 289.03125 338.542969 287.234375 C 338.917969 285.660156 338.730469 285.210938 338.226562 285.210938 C 337.4375 285.210938 335.546875 286.746094 334.050781 289.195312 C 333.570312 289.988281 333.234375 290.84375 333.050781 291.753906 C 332.765625 292.933594 332.4375 294.351562 332.183594 295.546875 C 331.226562 295.671875 330.289062 295.875 329.363281 296.152344 L 329.152344 295.917969 C 329.867188 292.941406 330.65625 289.746094 331.367188 286.472656 C 331.5625 285.613281 331.484375 285.363281 331.253906 285.363281 C 330.589844 285.621094 330.023438 286.019531 329.546875 286.550781 L 329.136719 285.699219 C 330.765625 283.804688 332.351562 282.914062 333.34375 282.914062 C 334.335938 282.914062 334.679688 283.960938 334.066406 286.621094 L 333.785156 287.816406 C 335.699219 285.140625 338.375 282.914062 340.335938 282.914062 C 341.359375 282.914062 342.289062 283.488281 341.410156 287.28125 C 341.039062 288.855469 340.519531 291.003906 340.164062 292.546875 C 340.015625 293.296875 340.015625 293.609375 340.234375 293.609375 C 340.457031 293.609375 341.234375 293.234375 342.140625 292.234375 Z M 342.589844 293.058594 " fill-opacity="1" fill-rule="nonzero"/><path fill="#126aa8" d="M 350.578125 293.136719 C 348.914062 295.199219 346.984375 296.144531 345.929688 296.144531 C 345.070312 296.144531 344.628906 295.359375 345.140625 293.257812 C 345.652344 291.15625 346.355469 288.488281 346.820312 286.449219 C 346.984375 285.730469 346.953125 285.472656 346.734375 285.472656 C 346.089844 285.683594 345.53125 286.035156 345.0625 286.527344 L 344.660156 285.675781 C 346.355469 283.976562 348.339844 282.945312 349.339844 282.945312 C 350.214844 282.945312 350.371094 283.851562 349.789062 286.296875 C 349.324219 288.148438 348.679688 290.738281 348.214844 292.59375 C 348.015625 293.320312 348.015625 293.6875 348.214844 293.6875 C 348.980469 293.414062 349.613281 292.957031 350.121094 292.320312 Z M 351.167969 278.75 C 351.175781 279.007812 351.132812 279.257812 351.042969 279.5 C 350.953125 279.742188 350.816406 279.957031 350.640625 280.144531 C 350.460938 280.335938 350.253906 280.480469 350.019531 280.585938 C 349.78125 280.691406 349.535156 280.75 349.277344 280.757812 C 349.0625 280.769531 348.859375 280.742188 348.65625 280.664062 C 348.457031 280.589844 348.28125 280.476562 348.132812 280.328125 C 347.980469 280.175781 347.867188 280 347.792969 279.800781 C 347.71875 279.601562 347.6875 279.394531 347.703125 279.183594 C 347.703125 278.917969 347.753906 278.664062 347.851562 278.417969 C 347.953125 278.175781 348.097656 277.960938 348.285156 277.773438 C 348.472656 277.585938 348.6875 277.441406 348.929688 277.339844 C 349.175781 277.234375 349.429688 277.183594 349.695312 277.183594 C 349.898438 277.175781 350.09375 277.210938 350.28125 277.285156 C 350.46875 277.363281 350.632812 277.472656 350.773438 277.621094 C 350.914062 277.769531 351.019531 277.9375 351.089844 278.128906 C 351.15625 278.320312 351.183594 278.515625 351.167969 278.71875 Z M 351.167969 278.75 " fill-opacity="1" fill-rule="nonzero"/><path fill="#126aa8" d="M 352.515625 285.730469 C 354.019531 284.007812 355.664062 282.914062 356.808594 282.914062 C 357.808594 282.914062 358.011719 284.226562 357.382812 286.945312 L 357.234375 287.613281 C 358.691406 285.0625 360.492188 282.890625 361.792969 282.890625 C 361.984375 282.890625 362.167969 282.929688 362.347656 283.003906 C 362.523438 283.078125 362.679688 283.179688 362.816406 283.316406 C 362.953125 283.449219 363.058594 283.605469 363.136719 283.78125 C 363.210938 283.957031 363.253906 284.140625 363.257812 284.332031 C 363.144531 285.269531 362.703125 286.015625 361.933594 286.566406 C 361.644531 286.753906 361.414062 286.753906 361.257812 286.566406 C 360.855469 286.132812 360.46875 285.722656 360.140625 285.722656 C 359.351562 285.722656 357.949219 288.085938 357.523438 288.933594 C 356.734375 290.460938 356.199219 293.136719 355.726562 295.484375 C 354.765625 295.613281 353.816406 295.816406 352.882812 296.089844 L 352.671875 295.855469 C 353.371094 293.082031 354.246094 289.296875 354.648438 287.25 C 354.996094 285.574219 354.910156 285.339844 354.695312 285.339844 C 354.003906 285.589844 353.414062 285.992188 352.925781 286.542969 Z M 352.515625 285.730469 " fill-opacity="1" fill-rule="nonzero"/><g clip-path="url(#d438a9f66a)"><path fill="#383838" d="M 332.425781 253.730469 C 332.539062 253.742188 332.644531 253.707031 332.730469 253.632812 C 332.816406 253.5625 332.867188 253.464844 332.875 253.351562 C 332.886719 253.242188 332.851562 253.136719 332.777344 253.050781 C 332.707031 252.964844 332.605469 252.914062 332.496094 252.90625 C 332.484375 252.90625 332.472656 252.90625 332.460938 252.90625 C 332.359375 252.90625 332.265625 252.941406 332.191406 253.003906 C 332.015625 253.152344 331.992188 253.414062 332.144531 253.585938 C 332.214844 253.671875 332.316406 253.722656 332.425781 253.730469 Z M 337.007812 249.476562 C 336.9375 249.390625 336.835938 249.339844 336.722656 249.332031 C 336.714844 249.332031 336.703125 249.332031 336.691406 249.332031 C 336.589844 249.332031 336.496094 249.367188 336.421875 249.429688 C 336.335938 249.5 336.285156 249.601562 336.273438 249.710938 C 336.265625 249.820312 336.300781 249.929688 336.375 250.011719 C 336.445312 250.097656 336.546875 250.148438 336.65625 250.15625 C 336.765625 250.167969 336.875 250.132812 336.960938 250.058594 C 337.136719 249.914062 337.15625 249.648438 337.007812 249.476562 Z M 341.582031 251.238281 C 343.574219 253.5625 343.292969 257.0625 340.953125 259.039062 C 339.90625 259.921875 338.621094 260.355469 337.34375 260.355469 C 335.765625 260.355469 334.195312 259.695312 333.09375 258.410156 C 332.140625 257.296875 331.671875 255.863281 331.78125 254.414062 C 331.667969 254.34375 331.5625 254.257812 331.472656 254.152344 C 331.011719 253.613281 331.074219 252.800781 331.621094 252.339844 C 332.164062 251.878906 332.984375 251.945312 333.449219 252.484375 C 333.671875 252.746094 333.78125 253.078125 333.753906 253.421875 C 333.726562 253.765625 333.566406 254.078125 333.300781 254.300781 C 333.113281 254.457031 332.890625 254.558594 332.652344 254.59375 C 332.589844 255.773438 332.984375 256.9375 333.765625 257.84375 C 335.441406 259.800781 338.410156 260.039062 340.382812 258.375 C 342.351562 256.707031 342.589844 253.761719 340.914062 251.804688 C 340.144531 250.90625 339.070312 250.339844 337.902344 250.199219 C 337.828125 250.398438 337.703125 250.578125 337.53125 250.726562 C 337.292969 250.925781 337 251.03125 336.691406 251.03125 C 336.65625 251.03125 336.621094 251.03125 336.585938 251.027344 C 336.242188 251 335.929688 250.839844 335.703125 250.578125 C 335.480469 250.316406 335.371094 249.984375 335.398438 249.640625 C 335.425781 249.300781 335.585938 248.988281 335.851562 248.765625 C 336.113281 248.542969 336.449219 248.433594 336.792969 248.460938 C 337.140625 248.488281 337.453125 248.648438 337.679688 248.910156 C 337.785156 249.035156 337.863281 249.175781 337.914062 249.324219 C 339.335938 249.46875 340.648438 250.148438 341.582031 251.238281 Z M 382.742188 257.839844 C 382.738281 257.726562 382.695312 257.625 382.613281 257.546875 C 382.535156 257.472656 382.433594 257.433594 382.328125 257.433594 C 382.324219 257.433594 382.320312 257.433594 382.316406 257.433594 C 382.085938 257.4375 381.902344 257.628906 381.910156 257.855469 C 381.910156 257.96875 381.957031 258.070312 382.039062 258.148438 C 382.117188 258.222656 382.222656 258.265625 382.335938 258.261719 C 382.566406 258.257812 382.746094 258.066406 382.742188 257.839844 Z M 381.78125 252.34375 C 381.78125 252.453125 381.828125 252.558594 381.910156 252.632812 C 381.988281 252.710938 382.09375 252.753906 382.207031 252.75 C 382.316406 252.746094 382.421875 252.699219 382.5 252.621094 C 382.574219 252.539062 382.617188 252.4375 382.613281 252.324219 C 382.609375 252.101562 382.421875 251.921875 382.195312 251.921875 C 382.195312 251.921875 382.191406 251.921875 382.1875 251.921875 C 381.957031 251.925781 381.773438 252.117188 381.78125 252.34375 Z M 383.222656 256.917969 C 383.472656 257.152344 383.613281 257.472656 383.621094 257.816406 C 383.636719 258.527344 383.070312 259.117188 382.355469 259.132812 C 382.34375 259.132812 382.335938 259.132812 382.324219 259.132812 C 382.171875 259.132812 382.023438 259.105469 381.882812 259.058594 C 380.875 260.058594 379.515625 260.644531 378.074219 260.675781 C 378.03125 260.675781 377.988281 260.675781 377.941406 260.675781 C 374.929688 260.675781 372.441406 258.277344 372.371094 255.273438 C 372.300781 252.222656 374.742188 249.683594 377.816406 249.613281 C 379.289062 249.582031 380.703125 250.125 381.769531 251.121094 C 381.894531 251.078125 382.027344 251.050781 382.167969 251.046875 C 382.878906 251.03125 383.476562 251.59375 383.492188 252.304688 C 383.5 252.648438 383.375 252.976562 383.136719 253.222656 C 382.894531 253.472656 382.574219 253.613281 382.226562 253.621094 C 382.21875 253.621094 382.207031 253.621094 382.195312 253.621094 C 381.863281 253.621094 381.546875 253.496094 381.300781 253.265625 C 381.050781 253.027344 380.910156 252.707031 380.902344 252.363281 C 380.894531 252.113281 380.964844 251.878906 381.082031 251.679688 C 380.195312 250.890625 379.039062 250.457031 377.835938 250.484375 C 375.25 250.542969 373.191406 252.683594 373.25 255.25 C 373.3125 257.785156 375.40625 259.804688 377.945312 259.804688 C 377.980469 259.804688 378.015625 259.804688 378.054688 259.804688 C 379.238281 259.777344 380.363281 259.304688 381.207031 258.496094 C 381.097656 258.308594 381.035156 258.097656 381.03125 257.878906 C 381.011719 257.167969 381.582031 256.578125 382.296875 256.5625 C 382.644531 256.554688 382.972656 256.679688 383.222656 256.917969 Z M 331.738281 259.917969 C 331.746094 259.804688 331.710938 259.699219 331.640625 259.613281 C 331.558594 259.519531 331.441406 259.46875 331.320312 259.46875 C 331.226562 259.46875 331.128906 259.5 331.050781 259.566406 C 330.875 259.714844 330.855469 259.976562 331.003906 260.152344 C 331.078125 260.234375 331.175781 260.285156 331.289062 260.296875 C 331.398438 260.304688 331.507812 260.269531 331.59375 260.199219 C 331.675781 260.125 331.730469 260.027344 331.738281 259.917969 Z M 335.550781 255.894531 C 335.453125 255.894531 335.359375 255.929688 335.28125 255.992188 C 335.195312 256.066406 335.144531 256.164062 335.136719 256.277344 C 335.128906 256.386719 335.164062 256.492188 335.234375 256.578125 C 335.382812 256.75 335.648438 256.773438 335.824219 256.625 C 335.996094 256.476562 336.019531 256.214844 335.871094 256.039062 C 335.796875 255.957031 335.695312 255.90625 335.585938 255.894531 C 335.574219 255.894531 335.5625 255.894531 335.550781 255.894531 Z M 332.308594 259.046875 C 332.535156 259.308594 332.640625 259.644531 332.613281 259.988281 C 332.585938 260.328125 332.425781 260.640625 332.160156 260.863281 C 331.925781 261.0625 331.632812 261.171875 331.324219 261.171875 C 331.289062 261.171875 331.253906 261.167969 331.21875 261.167969 C 330.871094 261.136719 330.558594 260.980469 330.335938 260.714844 C 330.226562 260.59375 330.148438 260.453125 330.097656 260.304688 C 328.679688 260.15625 327.363281 259.476562 326.429688 258.390625 C 324.4375 256.066406 324.722656 252.566406 327.0625 250.589844 C 329.402344 248.613281 332.925781 248.894531 334.917969 251.214844 C 335.875 252.328125 336.339844 253.765625 336.230469 255.210938 C 336.34375 255.28125 336.449219 255.371094 336.539062 255.472656 C 337.003906 256.015625 336.9375 256.828125 336.390625 257.289062 C 336.148438 257.496094 335.851562 257.59375 335.554688 257.59375 C 335.1875 257.59375 334.820312 257.441406 334.566406 257.144531 C 334.339844 256.882812 334.230469 256.546875 334.257812 256.207031 C 334.289062 255.863281 334.449219 255.550781 334.710938 255.328125 C 334.898438 255.167969 335.125 255.070312 335.363281 255.035156 C 335.421875 253.855469 335.027344 252.691406 334.25 251.78125 C 332.570312 249.828125 329.601562 249.589844 327.632812 251.253906 C 325.660156 252.917969 325.421875 255.867188 327.097656 257.824219 C 327.867188 258.71875 328.945312 259.289062 330.109375 259.429688 C 330.183594 259.230469 330.308594 259.050781 330.480469 258.902344 C 331.027344 258.441406 331.847656 258.507812 332.308594 259.046875 Z M 382.8125 249.617188 L 382.8125 250.71875 L 386.308594 250.71875 L 386.308594 260.171875 L 387.484375 260.171875 L 387.484375 250.71875 L 390.980469 250.71875 L 390.980469 249.617188 Z M 366.167969 255.390625 L 371.851562 255.390625 L 371.851562 254.308594 L 366.167969 254.308594 L 366.167969 250.703125 L 372.519531 250.703125 L 372.519531 249.617188 L 364.992188 249.617188 L 364.992188 260.171875 L 372.59375 260.171875 L 372.59375 259.085938 L 366.167969 259.085938 Z M 362.089844 258.074219 L 355.53125 249.617188 L 354.429688 249.617188 L 354.429688 260.171875 L 355.574219 260.171875 L 355.574219 251.515625 L 362.300781 260.171875 L 363.238281 260.171875 L 363.238281 249.617188 L 362.089844 249.617188 Z M 351.53125 249.617188 L 352.675781 249.617188 L 352.675781 260.171875 L 351.738281 260.171875 L 345.015625 251.515625 L 345.015625 260.171875 L 343.867188 260.171875 L 343.867188 249.617188 L 344.96875 249.617188 L 351.53125 258.074219 L 351.53125 249.617188 " fill-opacity="1" fill-rule="nonzero"/></g><g clip-path="url(#22b6b4d3fd)"><path fill="#32f2f7" d="M 254.140625 0.0664062 C 293.128906 0.0664062 329.390625 11.753906 359.601562 31.816406 L 389.488281 31.816406 C 389.824219 30.007812 391.40625 28.640625 393.304688 28.640625 C 395.449219 28.640625 397.183594 30.378906 397.183594 32.519531 C 397.183594 34.660156 395.449219 36.394531 393.304688 36.394531 C 391.40625 36.394531 389.824219 35.03125 389.488281 33.222656 L 361.691406 33.222656 C 369.195312 38.351562 376.320312 44 383.003906 50.109375 L 418.9375 50.109375 L 418.9375 57.046875 L 450.28125 57.046875 C 450.613281 55.238281 452.195312 53.875 454.097656 53.875 C 456.238281 53.875 457.976562 55.609375 457.976562 57.75 C 457.976562 59.890625 456.238281 61.628906 454.097656 61.628906 C 452.195312 61.628906 450.613281 60.261719 450.28125 58.453125 L 417.527344 58.453125 L 417.527344 51.519531 L 384.527344 51.519531 C 386.066406 52.957031 387.582031 54.421875 389.078125 55.914062 C 394.332031 61.164062 399.269531 66.714844 403.882812 72.539062 L 428.882812 72.539062 C 429.21875 70.734375 430.796875 69.367188 432.699219 69.367188 C 434.839844 69.367188 436.578125 71.101562 436.578125 73.242188 C 436.578125 75.382812 434.839844 77.121094 432.699219 77.121094 C 430.796875 77.121094 429.21875 75.753906 428.882812 73.949219 L 404.984375 73.949219 C 410.132812 80.570312 414.84375 87.546875 419.09375 94.824219 L 447.625 94.824219 L 447.625 111.5625 L 458.039062 111.5625 C 458.375 109.757812 459.953125 108.390625 461.855469 108.390625 C 463.996094 108.390625 465.734375 110.125 465.734375 112.269531 C 465.734375 114.410156 463.996094 116.144531 461.855469 116.144531 C 459.953125 116.144531 458.367188 114.777344 458.039062 112.972656 L 447.625 112.972656 L 447.625 126.003906 L 472.730469 126.003906 C 473.066406 124.195312 474.644531 122.832031 476.546875 122.832031 C 478.691406 122.832031 480.425781 124.566406 480.425781 126.707031 C 480.425781 128.847656 478.691406 130.585938 476.546875 130.585938 C 474.644531 130.585938 473.066406 129.21875 472.730469 127.414062 L 446.214844 127.414062 L 446.214844 112.964844 L 428.417969 112.964844 C 434.34375 126.195312 438.796875 140.222656 441.589844 154.839844 L 460.679688 154.839844 L 460.679688 148.375 C 458.871094 148.042969 457.503906 146.460938 457.503906 144.5625 C 457.503906 142.421875 459.242188 140.6875 461.386719 140.6875 C 463.527344 140.6875 465.265625 142.421875 465.265625 144.5625 C 465.265625 146.460938 463.898438 148.042969 462.089844 148.375 L 462.089844 154.839844 L 489.667969 154.839844 C 490 153.035156 491.582031 151.667969 493.480469 151.667969 C 495.625 151.667969 497.359375 153.40625 497.359375 155.546875 C 497.359375 157.6875 495.625 159.421875 493.480469 159.421875 C 491.582031 159.421875 489.992188 158.058594 489.667969 156.25 L 462.089844 156.25 L 462.089844 177.3125 L 444.5 177.3125 C 444.804688 181.75 444.964844 186.226562 444.964844 190.734375 C 444.964844 192.917969 444.921875 195.097656 444.847656 197.265625 L 482.898438 197.265625 L 482.898438 215.164062 L 500.480469 215.164062 C 500.8125 213.355469 502.394531 211.992188 504.292969 211.992188 C 506.4375 211.992188 508.171875 213.726562 508.171875 215.867188 C 508.171875 218.007812 506.4375 219.746094 504.292969 219.746094 C 502.394531 219.746094 500.8125 218.378906 500.480469 216.570312 L 482.898438 216.570312 L 482.898438 218.414062 C 484.703125 218.75 486.070312 220.328125 486.070312 222.226562 C 486.070312 224.367188 484.335938 226.105469 482.191406 226.105469 C 480.050781 226.105469 478.3125 224.367188 478.3125 222.226562 C 478.3125 220.328125 479.679688 218.75 481.488281 218.414062 L 481.488281 216.570312 L 443.21875 216.570312 C 442.550781 221.53125 441.679688 226.429688 440.636719 231.269531 L 460.082031 231.269531 L 460.082031 247.898438 L 471.316406 247.898438 C 471.648438 246.09375 473.230469 244.726562 475.128906 244.726562 C 477.273438 244.726562 479.011719 246.460938 479.011719 248.605469 C 479.011719 250.746094 477.273438 252.480469 475.128906 252.480469 C 473.230469 252.480469 471.648438 251.113281 471.316406 249.308594 L 460.082031 249.308594 L 460.082031 263.351562 L 480.839844 263.351562 C 481.175781 261.542969 482.753906 260.175781 484.65625 260.175781 C 486.796875 260.175781 488.535156 261.914062 488.535156 264.054688 C 488.535156 266.195312 486.796875 267.929688 484.65625 267.929688 C 482.753906 267.929688 481.175781 266.566406 480.839844 264.757812 L 458.671875 264.757812 L 458.671875 249.308594 L 435.789062 249.308594 C 431.066406 263.941406 424.625 277.796875 416.703125 290.644531 L 439.390625 290.644531 L 439.390625 280.324219 C 437.582031 279.988281 436.214844 278.410156 436.214844 276.507812 C 436.214844 274.367188 437.953125 272.632812 440.09375 272.632812 C 442.238281 272.632812 443.972656 274.367188 443.972656 276.507812 C 443.972656 278.410156 442.605469 279.988281 440.796875 280.324219 L 440.796875 290.644531 L 461.976562 290.644531 C 462.308594 288.835938 463.890625 287.472656 465.792969 287.472656 C 467.933594 287.472656 469.671875 289.207031 469.671875 291.347656 C 469.671875 293.488281 467.933594 295.226562 465.792969 295.226562 C 463.890625 295.226562 462.304688 293.859375 461.976562 292.050781 L 440.796875 292.050781 L 440.796875 310.105469 L 402.949219 310.105469 C 398.601562 315.511719 393.96875 320.675781 389.0625 325.578125 L 388.847656 325.792969 L 435.808594 325.792969 C 436.144531 323.984375 437.722656 322.617188 439.625 322.617188 C 441.765625 322.617188 443.503906 324.355469 443.503906 326.496094 C 443.503906 328.636719 441.765625 330.371094 439.625 330.371094 C 437.722656 330.371094 436.136719 329.007812 435.808594 327.199219 L 387.425781 327.199219 C 381.511719 332.96875 375.222656 338.355469 368.605469 343.324219 L 397.597656 343.324219 C 397.933594 341.519531 399.511719 340.152344 401.414062 340.152344 C 403.554688 340.152344 405.292969 341.890625 405.292969 344.03125 C 405.292969 346.171875 403.554688 347.90625 401.414062 347.90625 C 399.511719 347.90625 397.933594 346.542969 397.597656 344.734375 L 366.703125 344.734375 C 335.148438 367.808594 296.230469 381.433594 254.132812 381.433594 C 212.035156 381.433594 173.121094 367.808594 141.566406 344.734375 L 110.75 344.734375 C 110.414062 346.542969 108.835938 347.90625 106.933594 347.90625 C 104.792969 347.90625 103.054688 346.171875 103.054688 344.03125 C 103.054688 341.890625 104.792969 340.152344 106.933594 340.152344 C 108.835938 340.152344 110.414062 341.519531 110.75 343.324219 L 139.664062 343.324219 C 133.042969 338.359375 126.757812 332.96875 120.84375 327.199219 L 72.539062 327.199219 C 72.203125 329.007812 70.625 330.371094 68.722656 330.371094 C 66.582031 330.371094 64.84375 328.636719 64.84375 326.496094 C 64.84375 324.355469 66.582031 322.617188 68.722656 322.617188 C 70.625 322.617188 72.203125 323.984375 72.539062 325.792969 L 119.417969 325.792969 L 119.207031 325.578125 C 114.300781 320.675781 109.667969 315.511719 105.316406 310.105469 L 67.546875 310.105469 L 67.546875 292.050781 L 46.371094 292.050781 C 46.035156 293.859375 44.457031 295.226562 42.554688 295.226562 C 40.414062 295.226562 38.675781 293.488281 38.675781 291.347656 C 38.675781 289.207031 40.414062 287.472656 42.554688 287.472656 C 44.457031 287.472656 46.042969 288.835938 46.371094 290.644531 L 67.546875 290.644531 L 67.546875 280.324219 C 65.742188 279.988281 64.375 278.410156 64.375 276.507812 C 64.375 274.367188 66.109375 272.632812 68.253906 272.632812 C 70.394531 272.632812 72.132812 274.367188 72.132812 276.507812 C 72.132812 278.410156 70.765625 279.988281 68.957031 280.324219 L 68.957031 290.644531 L 91.566406 290.644531 C 83.644531 277.796875 77.199219 263.941406 72.480469 249.308594 L 49.667969 249.308594 L 49.667969 264.757812 L 27.5 264.757812 C 27.167969 266.566406 25.585938 267.929688 23.683594 267.929688 C 21.542969 267.929688 19.804688 266.195312 19.804688 264.054688 C 19.804688 261.914062 21.542969 260.175781 23.683594 260.175781 C 25.585938 260.175781 27.167969 261.542969 27.5 263.351562 L 48.257812 263.351562 L 48.257812 249.308594 L 37.023438 249.308594 C 36.691406 251.113281 35.109375 252.480469 33.210938 252.480469 C 31.066406 252.480469 29.328125 250.746094 29.328125 248.605469 C 29.328125 246.460938 31.066406 244.726562 33.210938 244.726562 C 35.109375 244.726562 36.699219 246.09375 37.023438 247.898438 L 48.257812 247.898438 L 48.257812 231.269531 L 67.632812 231.269531 C 66.585938 226.4375 65.726562 221.535156 65.050781 216.570312 L 26.859375 216.570312 L 26.859375 218.414062 C 28.667969 218.75 30.035156 220.328125 30.035156 222.226562 C 30.035156 224.367188 28.296875 226.105469 26.15625 226.105469 C 24.011719 226.105469 22.277344 224.367188 22.277344 222.226562 C 22.277344 220.328125 23.640625 218.75 25.449219 218.414062 L 25.449219 216.570312 L 7.867188 216.570312 C 7.535156 218.378906 5.953125 219.746094 4.054688 219.746094 C 1.910156 219.746094 0.171875 218.007812 0.171875 215.867188 C 0.171875 213.726562 1.910156 211.992188 4.054688 211.992188 C 5.953125 211.992188 7.535156 213.355469 7.867188 215.164062 L 25.449219 215.164062 L 25.449219 197.265625 L 63.417969 197.265625 C 63.347656 195.097656 63.304688 192.925781 63.304688 190.734375 C 63.304688 186.21875 63.460938 181.746094 63.769531 177.3125 L 46.257812 177.3125 L 46.257812 156.25 L 18.679688 156.25 C 18.347656 158.058594 16.765625 159.421875 14.867188 159.421875 C 12.722656 159.421875 10.984375 157.6875 10.984375 155.546875 C 10.984375 153.40625 12.722656 151.667969 14.867188 151.667969 C 16.765625 151.667969 18.355469 153.035156 18.679688 154.839844 L 46.257812 154.839844 L 46.257812 148.375 C 44.449219 148.042969 43.082031 146.460938 43.082031 144.5625 C 43.082031 142.421875 44.820312 140.6875 46.960938 140.6875 C 49.105469 140.6875 50.839844 142.421875 50.839844 144.5625 C 50.839844 146.460938 49.476562 148.042969 47.667969 148.375 L 47.667969 154.839844 L 66.679688 154.839844 C 69.46875 140.222656 73.925781 126.195312 79.847656 112.964844 L 62.132812 112.964844 L 62.132812 127.414062 L 35.617188 127.414062 C 35.28125 129.21875 33.699219 130.585938 31.800781 130.585938 C 29.65625 130.585938 27.921875 128.847656 27.921875 126.707031 C 27.921875 124.566406 29.65625 122.832031 31.800781 122.832031 C 33.699219 122.832031 35.28125 124.195312 35.617188 126.003906 L 60.722656 126.003906 L 60.722656 112.972656 L 50.308594 112.972656 C 49.972656 114.777344 48.394531 116.144531 46.492188 116.144531 C 44.351562 116.144531 42.613281 114.410156 42.613281 112.269531 C 42.613281 110.125 44.351562 108.390625 46.492188 108.390625 C 48.394531 108.390625 49.980469 109.757812 50.308594 111.5625 L 60.722656 111.5625 L 60.722656 94.824219 L 89.175781 94.824219 C 93.421875 87.542969 98.136719 80.570312 103.28125 73.949219 L 79.464844 73.949219 C 79.128906 75.753906 77.550781 77.121094 75.648438 77.121094 C 73.507812 77.121094 71.769531 75.382812 71.769531 73.242188 C 71.769531 71.101562 73.507812 69.367188 75.648438 69.367188 C 77.550781 69.367188 79.128906 70.734375 79.464844 72.539062 L 104.386719 72.539062 C 109 66.714844 113.945312 61.15625 119.191406 55.914062 C 120.679688 54.429688 122.195312 52.964844 123.742188 51.519531 L 90.816406 51.519531 L 90.816406 58.453125 L 58.066406 58.453125 C 57.730469 60.261719 56.152344 61.628906 54.25 61.628906 C 52.109375 61.628906 50.371094 59.890625 50.371094 57.75 C 50.371094 55.609375 52.109375 53.875 54.25 53.875 C 56.152344 53.875 57.730469 55.238281 58.066406 57.046875 L 89.410156 57.046875 L 89.410156 50.109375 L 125.265625 50.109375 C 131.949219 43.992188 139.066406 38.34375 146.578125 33.222656 L 118.855469 33.222656 C 118.523438 35.03125 116.941406 36.394531 115.042969 36.394531 C 112.898438 36.394531 111.164062 34.660156 111.164062 32.519531 C 111.164062 30.378906 112.898438 28.640625 115.042969 28.640625 C 116.941406 28.640625 118.523438 30.007812 118.855469 31.816406 L 148.667969 31.816406 C 178.878906 11.753906 215.140625 0.0664062 254.128906 0.0664062 Z M 439.394531 292.074219 L 415.828125 292.074219 C 412.203125 297.835938 408.28125 303.390625 404.082031 308.71875 L 439.394531 308.71875 Z M 440.328125 232.699219 C 439.167969 237.855469 437.800781 242.933594 436.234375 247.921875 L 458.679688 247.921875 L 458.679688 232.699219 Z M 481.488281 215.183594 L 481.488281 198.695312 L 444.800781 198.695312 C 444.570312 204.257812 444.101562 209.757812 443.410156 215.183594 Z M 460.671875 156.269531 L 441.84375 156.269531 C 443.027344 162.714844 443.882812 169.269531 444.394531 175.925781 L 460.671875 175.925781 Z M 446.207031 111.578125 L 446.207031 96.25 L 419.90625 96.25 C 422.753906 101.21875 425.378906 106.335938 427.777344 111.578125 L 446.214844 111.578125 Z M 104.1875 308.71875 C 99.988281 303.390625 96.066406 297.835938 92.441406 292.074219 L 68.949219 292.074219 L 68.949219 308.71875 Z M 49.667969 247.921875 L 72.03125 247.921875 C 70.46875 242.933594 69.101562 237.855469 67.941406 232.699219 L 49.667969 232.699219 Z M 64.859375 215.183594 C 64.160156 209.757812 63.699219 204.257812 63.46875 198.695312 L 26.859375 198.695312 L 26.859375 215.183594 L 64.863281 215.183594 Z M 63.875 175.925781 C 64.386719 169.273438 65.242188 162.714844 66.421875 156.269531 L 47.675781 156.269531 L 47.675781 175.925781 L 63.882812 175.925781 Z M 80.488281 111.578125 C 82.886719 106.335938 85.515625 101.21875 88.363281 96.25 L 62.132812 96.25 L 62.132812 111.578125 Z M 388.066406 56.917969 C 353.792969 22.667969 306.433594 1.476562 254.128906 1.476562 C 201.820312 1.476562 154.46875 22.660156 120.1875 56.917969 C 85.914062 91.167969 64.707031 138.496094 64.707031 190.765625 C 64.707031 243.035156 85.90625 290.351562 120.1875 324.609375 C 154.464844 358.863281 201.820312 380.050781 254.128906 380.050781 C 306.433594 380.050781 353.785156 358.867188 388.066406 324.609375 C 422.339844 290.359375 443.546875 243.035156 443.546875 190.765625 C 443.546875 138.496094 422.347656 91.175781 388.066406 56.917969 Z M 388.066406 56.917969 " fill-opacity="1" fill-rule="nonzero"/></g></svg>